<?xml version="1.0" encoding="UTF-8" standalone="no"?>

<svg
   width="185.20834mm"
   height="25.286247mm"
   viewBox="0 0 185.20834 25.286247"
   version="1.1"
   id="svg1"
   xmlnsinkscape="http://www.inkscape.org/namespaces/inkscape"
   xmlnssodipodi="http://sodipodi.sourceforge.net/DTD/sodipodi-0.dtd"
   xmlns="http://www.w3.org/2000/svg"
   xmlnssvg="http://www.w3.org/2000/svg">
  <sodipodiNamedview
     id="namedview1"
     pagecolor="#505050"
     bordercolor="#eeeeee"
     borderopacity="1"
     inkscapeshowpageshadow="0"
     inkscapepageopacity="0"
     inkscapepagecheckerboard="0"
     inkscapedeskcolor="#505050"
     inkscapedocumentunits="px"
     inkscapezoom="0.70710678"
     inkscapecx="444.06306"
     inkscapecy="360.62446"
     inkscapewindowwidth="1440"
     inkscapewindowheight="838"
     inkscapewindowx="-6"
     inkscapewindowy="-6"
     inkscapewindowmaximized="1"
     inkscapecurrentlayer="layer1"
     inkscapeexportbgcolor="#ffffff00" />
  <defs
     id="defs1" />
  <g
     inkscapelabel="Layer 1"
     inkscapegroupmode="layer"
     id="layer1"
     transform="translate(-12.627974,-68.54489)">
    <text
       style="font-weight:bold;font-size:34.9907px;font-family:'Trebuchet MS';-inkscape-font-specification:'Trebuchet MS, Bold';fill:#ff5c00;stroke-width:0.656077"
       x="11.483259"
       y="93.754257"
       id="text11">4</text>
    <text
       style="font-weight:bold;font-size:34.9907px;font-family:'Trebuchet MS';-inkscape-font-specification:'Trebuchet MS, Bold';fill:#ff5c00;stroke-width:0.656077"
       x="57.73666"
       y="93.754257"
       id="text9">4</text>
    <text
       style="font-weight:bold;font-size:34.9907px;font-family:'Trebuchet MS';-inkscape-font-specification:'Trebuchet MS, Bold';fill:#ff5c00;stroke-width:0.656077"
       x="88.780716"
       y="93.703011"
       id="text8">E</text>
    <text
       style="font-weight:bold;font-size:34.9907px;font-family:'Trebuchet MS';-inkscape-font-specification:'Trebuchet MS, Bold';fill:#ff5c00;stroke-width:0.656077"
       x="108.68511"
       y="93.831139"
       id="text7">R</text>
    <text
       style="font-weight:bold;font-size:34.9907px;font-family:'Trebuchet MS';-inkscape-font-specification:'Trebuchet MS, Bold';fill:#ff5c00;stroke-width:0.656077"
       x="130.05899"
       y="93.831139"
       id="text6">R</text>
    <text
       style="font-weight:bold;font-size:34.9907px;font-family:'Trebuchet MS';-inkscape-font-specification:'Trebuchet MS, Bold';fill:#ff5c00;stroke-width:0.656077"
       x="176.03548"
       y="93.831139"
       id="text4">R</text>
    <path
       id="path11"
       style="fill:#ff5c00;fill-opacity:1;stroke-width:0.264583;
       }"
       sodipoditype="inkscape:offset"
       inkscaperadius="0"
       inkscapeoriginal="M 51.287109 86.392578 A 8.1674995 8.1674995 0 0 0 43.119141 94.560547 A 8.1674995 8.1674995 0 0 0 51.287109 102.72852 A 8.1674995 8.1674995 0 0 0 59.455078 94.560547 A 8.1674995 8.1674995 0 0 0 51.287109 86.392578 z M 51.287109 87.451172 C 52.602237 87.451172 53.667969 88.516901 53.667969 89.832031 C 53.667969 91.147151 52.602237 92.212891 51.287109 92.212891 C 49.971983 92.212891 48.90625 91.147151 48.90625 89.832031 C 48.90625 88.516901 49.971983 87.451172 51.287109 87.451172 z M 46.822266 90.714844 C 47.05651 90.717744 47.292826 90.755831 47.527344 90.832031 C 48.778104 91.238421 49.463038 92.581271 49.056641 93.832031 C 48.650245 95.082791 47.307401 95.767728 46.056641 95.361328 C 44.805881 94.954938 44.120948 93.612088 44.527344 92.361328 C 44.857542 91.345088 45.807209 90.702034 46.822266 90.714844 z M 55.751953 90.716797 C 56.76701 90.703987 57.714725 91.347041 58.044922 92.363281 C 58.451319 93.614041 57.766385 94.956891 56.515625 95.363281 C 55.264866 95.769681 53.922022 95.084744 53.515625 93.833984 C 53.109228 92.583224 53.794162 91.240374 55.044922 90.833984 C 55.279439 90.757784 55.51771 90.719747 55.751953 90.716797 z M 51.287109 93.236328 A 1.3229166 1.3229166 0 0 1 52.609375 94.560547 A 1.3229166 1.3229166 0 0 1 51.287109 95.882812 A 1.3229166 1.3229166 0 0 1 49.962891 94.560547 A 1.3229166 1.3229166 0 0 1 51.287109 93.236328 z M 48.476562 96 C 48.97262 95.9931 49.475969 96.139095 49.908203 96.453125 C 50.972163 97.226145 51.206606 98.715337 50.433594 99.779297 C 49.660582 100.84326 48.171382 101.07965 47.107422 100.30664 C 46.043461 99.533629 45.809019 98.044429 46.582031 96.980469 C 47.041007 96.348739 47.751554 96.01001 48.476562 96 z M 54.09375 96 C 54.818758 96.01001 55.531258 96.350692 55.990234 96.982422 C 56.763246 98.046382 56.526851 99.535582 55.462891 100.30859 C 54.39893 101.08161 52.909731 100.84521 52.136719 99.78125 C 51.363707 98.71729 51.600101 97.228088 52.664062 96.455078 C 53.096295 96.141038 53.597692 95.99315 54.09375 96 z "
       d="m 51.287109,86.392578 a 8.1674995,8.1674995 0 0 0 -8.167968,8.167969 8.1674995,8.1674995 0 0 0 8.167968,8.167973 8.1674995,8.1674995 0 0 0 8.167969,-8.167973 8.1674995,8.1674995 0 0 0 -8.167969,-8.167969 z m 0,1.058594 c 1.315128,0 2.38086,1.065729 2.38086,2.380859 0,1.31512 -1.065732,2.38086 -2.38086,2.38086 -1.315126,0 -2.380859,-1.06574 -2.380859,-2.38086 0,-1.31513 1.065733,-2.380859 2.380859,-2.380859 z m -4.464843,3.263672 c 0.234244,0.0029 0.47056,0.04099 0.705078,0.117187 1.25076,0.40639 1.935694,1.74924 1.529297,3 -0.406396,1.25076 -1.74924,1.935697 -3,1.529297 -1.25076,-0.40639 -1.935693,-1.74924 -1.529297,-3 0.330198,-1.01624 1.279865,-1.659294 2.294922,-1.646484 z m 8.929687,0.002 c 1.015057,-0.01281 1.962772,0.630244 2.292969,1.646484 0.406397,1.25076 -0.278537,2.59361 -1.529297,3 -1.250759,0.4064 -2.593603,-0.278537 -3,-1.529297 -0.406397,-1.25076 0.278537,-2.59361 1.529297,-3 0.234517,-0.0762 0.472788,-0.114237 0.707031,-0.117187 z m -4.464844,2.519531 a 1.3229166,1.3229166 0 0 1 1.322266,1.324219 1.3229166,1.3229166 0 0 1 -1.322266,1.322265 1.3229166,1.3229166 0 0 1 -1.324218,-1.322265 1.3229166,1.3229166 0 0 1 1.324218,-1.324219 z M 48.476562,96 c 0.496058,-0.0069 0.999407,0.139095 1.431641,0.453125 1.06396,0.77302 1.298403,2.262212 0.525391,3.326172 -0.773012,1.063963 -2.262212,1.300353 -3.326172,0.527343 C 46.043461,99.533629 45.809019,98.044429 46.582031,96.980469 47.041007,96.348739 47.751554,96.01001 48.476562,96 Z m 5.617188,0 c 0.725008,0.01001 1.437508,0.350692 1.896484,0.982422 0.773012,1.06396 0.536617,2.55316 -0.527343,3.326168 -1.063961,0.77302 -2.55316,0.53662 -3.326172,-0.52734 -0.773012,-1.06396 -0.536618,-2.553162 0.527343,-3.326172 C 53.096295,96.141038 53.597692,95.99315 54.09375,96 Z"
       transform="matrix(1.5057429,0,0,1.5057429,-32.372574,-61.195882)" />
    <path
       id="path11-9"
       style="fill:#ff5c00;fill-opacity:1;stroke-width:0.264583"
       sodipoditype="inkscape:offset"
       inkscaperadius="0"
       inkscapeoriginal="M 51.287109 86.392578 A 8.1674995 8.1674995 0 0 0 43.119141 94.560547 A 8.1674995 8.1674995 0 0 0 51.287109 102.72852 A 8.1674995 8.1674995 0 0 0 59.455078 94.560547 A 8.1674995 8.1674995 0 0 0 51.287109 86.392578 z M 51.287109 87.451172 C 52.602237 87.451172 53.667969 88.516901 53.667969 89.832031 C 53.667969 91.147151 52.602237 92.212891 51.287109 92.212891 C 49.971983 92.212891 48.90625 91.147151 48.90625 89.832031 C 48.90625 88.516901 49.971983 87.451172 51.287109 87.451172 z M 46.822266 90.714844 C 47.05651 90.717744 47.292826 90.755831 47.527344 90.832031 C 48.778104 91.238421 49.463038 92.581271 49.056641 93.832031 C 48.650245 95.082791 47.307401 95.767728 46.056641 95.361328 C 44.805881 94.954938 44.120948 93.612088 44.527344 92.361328 C 44.857542 91.345088 45.807209 90.702034 46.822266 90.714844 z M 55.751953 90.716797 C 56.76701 90.703987 57.714725 91.347041 58.044922 92.363281 C 58.451319 93.614041 57.766385 94.956891 56.515625 95.363281 C 55.264866 95.769681 53.922022 95.084744 53.515625 93.833984 C 53.109228 92.583224 53.794162 91.240374 55.044922 90.833984 C 55.279439 90.757784 55.51771 90.719747 55.751953 90.716797 z M 51.287109 93.236328 A 1.3229166 1.3229166 0 0 1 52.609375 94.560547 A 1.3229166 1.3229166 0 0 1 51.287109 95.882812 A 1.3229166 1.3229166 0 0 1 49.962891 94.560547 A 1.3229166 1.3229166 0 0 1 51.287109 93.236328 z M 48.476562 96 C 48.97262 95.9931 49.475969 96.139095 49.908203 96.453125 C 50.972163 97.226145 51.206606 98.715337 50.433594 99.779297 C 49.660582 100.84326 48.171382 101.07965 47.107422 100.30664 C 46.043461 99.533629 45.809019 98.044429 46.582031 96.980469 C 47.041007 96.348739 47.751554 96.01001 48.476562 96 z M 54.09375 96 C 54.818758 96.01001 55.531258 96.350692 55.990234 96.982422 C 56.763246 98.046382 56.526851 99.535582 55.462891 100.30859 C 54.39893 101.08161 52.909731 100.84521 52.136719 99.78125 C 51.363707 98.71729 51.600101 97.228088 52.664062 96.455078 C 53.096295 96.141038 53.597692 95.99315 54.09375 96 z "
       d="m 51.287109,86.392578 a 8.1674995,8.1674995 0 0 0 -8.167968,8.167969 8.1674995,8.1674995 0 0 0 8.167968,8.167973 8.1674995,8.1674995 0 0 0 8.167969,-8.167973 8.1674995,8.1674995 0 0 0 -8.167969,-8.167969 z m 0,1.058594 c 1.315128,0 2.38086,1.065729 2.38086,2.380859 0,1.31512 -1.065732,2.38086 -2.38086,2.38086 -1.315126,0 -2.380859,-1.06574 -2.380859,-2.38086 0,-1.31513 1.065733,-2.380859 2.380859,-2.380859 z m -4.464843,3.263672 c 0.234244,0.0029 0.47056,0.04099 0.705078,0.117187 1.25076,0.40639 1.935694,1.74924 1.529297,3 -0.406396,1.25076 -1.74924,1.935697 -3,1.529297 -1.25076,-0.40639 -1.935693,-1.74924 -1.529297,-3 0.330198,-1.01624 1.279865,-1.659294 2.294922,-1.646484 z m 8.929687,0.002 c 1.015057,-0.01281 1.962772,0.630244 2.292969,1.646484 0.406397,1.25076 -0.278537,2.59361 -1.529297,3 -1.250759,0.4064 -2.593603,-0.278537 -3,-1.529297 -0.406397,-1.25076 0.278537,-2.59361 1.529297,-3 0.234517,-0.0762 0.472788,-0.114237 0.707031,-0.117187 z m -4.464844,2.519531 a 1.3229166,1.3229166 0 0 1 1.322266,1.324219 1.3229166,1.3229166 0 0 1 -1.322266,1.322265 1.3229166,1.3229166 0 0 1 -1.324218,-1.322265 1.3229166,1.3229166 0 0 1 1.324218,-1.324219 z M 48.476562,96 c 0.496058,-0.0069 0.999407,0.139095 1.431641,0.453125 1.06396,0.77302 1.298403,2.262212 0.525391,3.326172 -0.773012,1.063963 -2.262212,1.300353 -3.326172,0.527343 C 46.043461,99.533629 45.809019,98.044429 46.582031,96.980469 47.041007,96.348739 47.751554,96.01001 48.476562,96 Z m 5.617188,0 c 0.725008,0.01001 1.437508,0.350692 1.896484,0.982422 0.773012,1.06396 0.536617,2.55316 -0.527343,3.326168 -1.063961,0.77302 -2.55316,0.53662 -3.326172,-0.52734 -0.773012,-1.06396 -0.536618,-2.553162 0.527343,-3.326172 C 53.096295,96.141038 53.597692,95.99315 54.09375,96 Z"
       transform="matrix(1.5057429,0,0,1.5057429,86.204369,-61.195882)" />
  </g>
</svg>
